<svg xmlns="http://www.w3.org/2000/svg" viewBox="0 0 512 512" role="img" aria-label="Hydro Hero avatar">
  <defs>
    <linearGradient id="bg" x1="0" y1="0" x2="1" y2="1">
      <stop offset="0%" stop-color="#7fd9f5"/>
      <stop offset="100%" stop-color="#647cec"/>
    </linearGradient>
  </defs>
  <rect width="512" height="512" rx="96" fill="url(#bg)"/>
  <path d="M160 346c0 42 43 76 96 76s96-34 96-76c0-64-96-196-96-196s-96 132-96 196z" fill="#f5fbff"/>
  <path d="M183 350c0 29 32 52 73 52s73-23 73-52c0-20-15-53-35-89-8 34-32 55-62 55-19 0-37-8-51-22-4 20-8 40-8 56z" fill="#8ec9ff"/>
  <path d="M103 418c23-25 48-34 73-29 22 4 40 14 56 14 15 0 33-10 56-14 25-5 50 4 73 29" fill="none" stroke="#ffffff" stroke-linecap="round" stroke-width="16" opacity=".88"/>
</svg>
